<?xml version="1.0" encoding="UTF-8" standalone="no"?>
<!DOCTYPE svg PUBLIC "-//W3C//DTD SVG 1.1//EN" "http://www.w3.org/Graphics/SVG/1.1/DTD/svg11.dtd">
<svg width="100%" height="100%" viewBox="0 0 246 139" version="1.1" xmlns="http://www.w3.org/2000/svg" xmlns:xlink="http://www.w3.org/1999/xlink" xml:space="preserve" xmlns:serif="http://www.serif.com/" style="fill-rule:evenodd;clip-rule:evenodd;stroke-linejoin:round;stroke-miterlimit:2;">
    <g id="Layer_x0020_1" transform="matrix(0.113577,0,0,0.113577,-0.129906,-108.34761)">
        <g id="_2208654150064" transform="matrix(1,0,0,1,1.459654,473.07008)">
            <g transform="matrix(1,0,0,1,-5.050169,0)">
                <path d="M392.43,1382.73L465.44,1378.77L475.39,1382.73C475.39,1382.73 451.76,1386.53 436.09,1405.57C426.88,1416.8 420.81,1457.2 419.53,1471.1C416.9,1500.91 477.44,1503.21 489.03,1476.08C497.32,1455.56 511.87,1399.94 511.73,1383.06L570.39,1379.12L580.28,1383.06C580.28,1383.06 561.26,1392.7 552.27,1423.12C543.37,1453.58 525.8,1519.42 505.58,1574.71C495.35,1597.22 482.6,1610.99 422.52,1610.83C371.86,1610.49 338.27,1608.16 347.05,1563.81C353.15,1538.52 356.63,1524.76 356.63,1524.76L402.44,1520.82L412.58,1524.76C412.58,1524.76 393.03,1530.38 387.78,1556.55C382.44,1582.69 385.4,1601.51 418.2,1601.2C450.98,1600.87 459.62,1581.69 464.6,1571.76C469.5,1561.82 487.72,1500.58 487.72,1500.58C487.72,1500.58 473.68,1509.59 449.99,1510.52C426.33,1511.41 380.78,1509.81 374.21,1479.07C371.72,1467.99 378.65,1442.96 382.01,1433.19C388.61,1408.05 389.75,1403.26 392.43,1382.74L392.43,1382.73Z" style="fill:rgb(43,42,41);"/>
                <path d="M288.54,1501.5L335.25,1491.27L325.48,1487.21L292.83,1489.95C299.84,1466.6 308.13,1440.35 316.49,1417.09C323.98,1398.35 343.33,1388.41 354.34,1383.31L344.38,1379.34C319.87,1379.32 297.27,1382.55 271.89,1382.77C263.08,1382.77 241.52,1384.37 241.52,1384.37C204.13,1388.41 166.86,1401.79 150.98,1445.49C135.29,1498.78 108.48,1552.14 92.79,1605.48L102.64,1609.45L175.73,1609.45C155.59,1600.85 150.71,1587.72 153.95,1574.88C159.31,1555.05 167.9,1531.47 173.29,1511.64C197.34,1510.05 220.54,1509.24 245.7,1507.48C245.26,1509.15 210.34,1587.2 204.76,1605.48L214.66,1609.45C232.13,1609.71 279.17,1609.71 296.32,1609.71C283.19,1604.36 267.87,1595.28 271.1,1578.92C276.48,1552.12 279.17,1524.51 288.55,1501.5L288.54,1501.5ZM250.12,1489.39L243.95,1489.39C222.43,1489.16 199.61,1489.39 178.71,1489.16C190.73,1436.35 215.25,1412.79 243.95,1402.86C264.39,1395.8 287.15,1395.09 309.18,1395.33C296.08,1402.07 282.37,1410.61 273.5,1426.99C261.69,1445.17 258.96,1469.06 250.12,1489.39Z" style="fill:rgb(43,42,41);"/>
                <path d="M577.79,1473.5L567.8,1469.47C576.42,1441.43 603.36,1394.08 600.75,1384.23C664.91,1384.45 733.94,1380.08 798.49,1380.25L808.41,1384.23C787.32,1398.36 754.17,1419.48 734.67,1420.81C722.11,1420.81 711.39,1418.95 698.84,1411.73C683.03,1466.28 667.56,1522.67 651.8,1577.24C649.09,1588.35 660.34,1597.69 674.23,1604.15C676.38,1605.6 678.63,1606.08 681.03,1606.33L691.08,1610.37C659.86,1610.92 628.8,1609.54 597.58,1610.09L587.7,1606.17C607.09,1541 638.31,1475.31 657.64,1410.11C635.48,1413.62 603.67,1428.32 577.8,1473.51L577.79,1473.5Z" style="fill:rgb(43,42,41);"/>
                <path d="M795.82,1597.89C819.49,1601.04 843.97,1561.63 861.86,1521.17C873.47,1494.92 885.89,1464.84 874.89,1444.05C870.13,1436.37 860.8,1435.49 850.08,1453.4L840.17,1449.39C844.42,1432.39 870.9,1413.98 887.12,1412.62C904.15,1410.56 914.46,1415.04 922.29,1429.45C934.39,1458.09 913.09,1512.46 898.68,1537.16C884.5,1560.83 867.35,1583.15 845.37,1598.41C831.91,1607.58 813,1609.96 797.2,1610.22C781.94,1609.62 770.04,1606.18 755.8,1601.27L745.57,1596.77C736.58,1590.93 739.28,1585.55 737.25,1576.53C723.03,1512.41 770.76,1439.25 814.89,1405.47C830.73,1393.41 856.61,1382.42 874.72,1382.42C878.71,1382.39 882.35,1382.57 885.69,1382.94L885.38,1380.81L893.38,1383.18C906.62,1387.47 916.71,1398.34 921.22,1409.21L911.33,1405.23L910.17,1404.51C899.82,1401.1 890.63,1401.22 878.67,1403.99C841.67,1414.23 818.35,1446.85 796.75,1484.19C782.06,1509.88 750.88,1591.42 795.79,1597.88L795.82,1597.89Z" style="fill:rgb(43,42,41);"/>
                <path d="M382.46,1378.77L465.5,1378.77C465.5,1378.77 441.84,1382.55 426.16,1401.6C416.9,1412.83 410.91,1453.21 409.6,1467.15C406.94,1496.92 467.56,1499.26 479.11,1472.09C487.39,1451.57 501.93,1395.96 501.81,1379.09L570.37,1379.09C570.37,1379.09 551.27,1388.7 542.33,1419.13C533.4,1449.6 515.86,1515.46 495.72,1570.72C485.4,1593.27 472.64,1607.01 412.58,1606.8C361.93,1606.51 328.39,1604.17 337.13,1559.81C343.21,1534.53 346.74,1520.75 346.74,1520.75L402.68,1520.75C402.68,1520.75 383.09,1526.36 377.85,1552.51C372.52,1578.65 375.5,1597.57 408.31,1597.19C441.07,1596.86 449.64,1577.68 454.63,1567.73C459.63,1557.83 477.79,1496.56 477.79,1496.56C477.79,1496.56 463.74,1505.59 440.12,1506.52C416.4,1507.42 370.92,1505.85 364.25,1475.03C361.79,1463.95 368.77,1438.99 372.05,1429.2C378.65,1404.05 379.84,1399.24 382.46,1378.74L382.46,1378.77Z" style="fill:rgb(227,30,36);"/>
                <path d="M278.59,1497.51L325.37,1487.31L282.95,1485.97C289.89,1462.69 298.19,1436.39 306.51,1413.1C314.05,1394.36 333.4,1384.41 344.38,1379.32C315.37,1379.61 290.91,1378.56 261.95,1378.8C253.05,1378.8 231.57,1380.39 231.57,1380.39C194.25,1384.41 156.89,1397.81 141.08,1441.47C124.95,1496.18 108.8,1550.82 92.78,1605.48L165.75,1605.48C145.63,1596.87 140.79,1583.75 144,1570.92C149.39,1551.07 157.96,1527.52 163.35,1507.69C187.39,1506.08 210.54,1505.29 235.79,1503.58C235.24,1505.4 204.73,1605.49 204.73,1605.49C222.18,1605.76 269.24,1605.76 286.41,1605.76C273.19,1600.43 257.91,1591.3 261.13,1574.94C266.49,1548.14 269.24,1520.53 278.58,1497.51L278.59,1497.51ZM240.15,1485.44L233.95,1485.44C212.51,1485.14 189.68,1485.44 168.75,1485.14C180.86,1432.42 205.27,1408.81 233.95,1398.9C254.47,1391.82 277.21,1391.12 299.29,1391.39C286.09,1398.09 272.4,1406.66 263.55,1422.99C251.75,1441.23 249,1465.09 240.15,1485.45L240.15,1485.44Z" style="fill:rgb(227,30,36);"/>
                <path d="M567.81,1469.53C575.59,1440.36 593.97,1392.26 590.84,1380.27C659.29,1380.5 729.76,1379.98 798.52,1380.27C777.39,1394.39 744.27,1415.51 724.71,1416.86C712.14,1416.86 701.52,1415.01 688.91,1407.81C673.14,1462.31 657.62,1518.75 641.86,1573.25C638.13,1588.73 661.32,1600.77 681.17,1606.41C649.87,1606.9 618.9,1605.6 587.6,1606.12C607.35,1539.57 627.97,1472.73 647.75,1406.15C625.59,1409.65 593.69,1424.32 567.81,1469.53Z" style="fill:rgb(227,30,36);"/>
                <path d="M785.9,1593.93C809.6,1597.07 834.05,1557.68 851.93,1517.2C863.49,1490.93 876,1460.83 864.92,1440.12C860.25,1432.43 850.9,1431.55 840.16,1449.43C839.85,1427.62 857.99,1410.25 877.18,1408.68C894.23,1406.59 904.49,1411.09 912.44,1425.49C924.47,1454.14 903.16,1508.51 888.74,1533.19C874.6,1556.87 857.48,1579.19 835.39,1594.42C822.04,1603.63 803.1,1605.98 787.34,1606.28C747.92,1604.65 731.53,1591.25 727.34,1572.58C713.16,1508.46 760.88,1435.29 805.05,1401.52C820.8,1389.43 846.73,1378.48 864.94,1378.48C894.25,1378.22 904.84,1389.5 911.4,1405.26C895.87,1397.37 884.87,1396.31 868.82,1400.02C831.73,1410.24 808.44,1442.91 786.91,1480.2C772.19,1505.99 740.97,1587.46 785.93,1593.93L785.9,1593.93Z" style="fill:rgb(227,30,36);"/>
            </g>
            <g transform="matrix(1,0,0,1,44.593723,0)">
                <path d="M1138.22,1609.81L1226.29,1609.81C1226.29,1609.81 1219.65,1607.24 1205.67,1601.31C1190.42,1594.39 1197.53,1574.39 1197.53,1574.39C1197.53,1574.39 1228.93,1461.17 1246.51,1423.78C1264.03,1386.39 1295.47,1383.06 1295.47,1383.06L1285.5,1379.15L1087.18,1383.06C1087.18,1383.06 1096.02,1392.5 1084.45,1424.11C1075.76,1447.78 1020.96,1572.79 1009.35,1606.17L1019.25,1610.07L1109.09,1610.07L1098.99,1606.07C1095.92,1604.85 1093.03,1603.2 1090.21,1601.89C1080.06,1597.16 1073.87,1592.42 1081.83,1570.1C1090.88,1544.45 1137.91,1399.77 1137.91,1399.77L1201.22,1399.77L1128.3,1605.88L1138.21,1609.83L1138.22,1609.81Z" style="fill:rgb(43,42,41);"/>
                <path d="M1833.29,1543C1832.79,1559.15 1842.26,1577.04 1865.83,1578.55C1883.77,1578.91 1905,1577.97 1917.51,1566.76L1946.45,1540.83L1956.43,1544.76C1956.43,1544.76 1923.9,1575.99 1901.81,1591.2C1888.42,1600.36 1866.02,1609.81 1844.23,1609.81C1805.94,1609.05 1798.28,1592.91 1794.52,1576.54C1780.02,1512.48 1827.48,1439.17 1870.46,1404C1888.17,1389.6 1908.3,1382.38 1932.07,1382.43C1961.53,1382.19 1974.88,1401.11 1977.78,1410.46C1982.69,1426.37 1981.04,1446.19 1975.28,1461.84C1996.38,1465.05 2040.85,1470.03 2062.61,1473.58L2072.59,1477.47C2072.59,1477.47 1960.68,1479.01 1923.15,1479.01L1913.3,1475.03C1915.12,1471.31 1931.28,1462.58 1932.8,1458.88C1947.46,1423.07 1947.71,1390.08 1921.4,1396.55C1901.58,1402.31 1874.29,1439.11 1855.19,1477.74C1846.76,1494.84 1835.3,1518.45 1833.28,1543L1833.29,1543Z" style="fill:rgb(43,42,41);"/>
                <path d="M1417.5,1383.05C1378.75,1383.05 1323.14,1394.3 1302.31,1442.96C1283.32,1490.75 1243.12,1582.64 1235.84,1605.81L1245.66,1609.81L1320.63,1609.81C1320.63,1609.81 1295.8,1602.34 1299.8,1583.48C1302.4,1571.01 1333.06,1457.85 1354.38,1431.06C1375.77,1404.26 1407.02,1397.81 1430.32,1397.31C1418.86,1425.71 1360.94,1574.73 1351.25,1605.68L1361.11,1609.55L1448.71,1609.55L1438.66,1605.59C1427.49,1602.79 1416.14,1595.89 1416.48,1583.49C1417,1564.15 1469.13,1416.16 1472.07,1409.71C1475.12,1403.26 1481.04,1391.35 1506.31,1383.06L1496.27,1379.09C1464.12,1379.09 1450.61,1383.06 1417.5,1383.06L1417.5,1383.05Z" style="fill:rgb(43,42,41);"/>
                <path d="M1774.06,1429.46C1769.87,1421.72 1765.8,1417.18 1758.07,1413.22L1745.82,1409.34C1743.42,1409.32 1741.57,1412.3 1738.83,1412.63C1724.87,1413.81 1698.02,1435.81 1691.91,1449.38L1701.88,1453.41C1712.66,1435.5 1721.93,1436.38 1726.69,1444.06C1737.73,1464.85 1725.16,1494.93 1713.67,1521.18C1695.78,1561.64 1671.18,1601.05 1647.62,1597.9C1607.74,1592.17 1627.79,1527.36 1643.15,1494.84C1658.81,1492.13 1673.25,1489.21 1684.12,1487.16L1674.06,1483.22L1648.47,1484.49C1648.51,1484.39 1648.57,1484.28 1648.62,1484.21C1670.09,1446.87 1693.38,1414.26 1730.53,1404.01C1742.78,1401.16 1752.36,1401.54 1763.02,1405.21L1773.06,1409.23C1766.52,1393.47 1755.97,1382.19 1726.56,1382.44C1708.45,1382.44 1682.47,1393.43 1666.67,1405.49C1644.62,1422.4 1621.66,1449.12 1605.96,1479.65C1605.65,1479.62 1605.43,1479.58 1605.15,1479.57C1590.86,1479.22 1580.49,1479.09 1561.48,1478.77C1572.9,1443.57 1583.43,1412.62 1584.78,1409.73C1587.77,1403.28 1596.18,1391.37 1621.55,1383.08L1611.47,1379.14C1579.26,1379.14 1579.09,1383.08 1545.07,1383.08C1534.8,1410.99 1477.04,1569.63 1466.49,1605.6L1476.34,1609.57L1563.92,1609.57L1553.88,1605.61C1552.03,1605.65 1549.61,1604.92 1547.92,1604.15C1539.21,1600.14 1531.43,1593.96 1531.67,1583.51C1531.85,1574.65 1542.38,1538.92 1554,1502.07C1567.72,1502.25 1579.69,1501.76 1596.37,1501.41C1587.3,1525.97 1583.53,1551.94 1588.97,1576.56C1593.2,1595.19 1609.64,1608.69 1648.96,1610.25C1664.79,1609.99 1683.72,1607.61 1697.1,1598.44C1719.15,1583.19 1736.27,1560.87 1750.42,1537.19C1764.88,1512.49 1786.14,1458.12 1774.04,1429.48L1774.06,1429.46Z" style="fill:rgb(43,42,41);"/>
                <path d="M1128.29,1605.82L1216.41,1605.82C1216.41,1605.82 1209.75,1603.22 1195.8,1596.89C1180.6,1589.94 1187.57,1570.41 1187.57,1570.41C1187.57,1570.41 1218.98,1457.22 1236.54,1419.81C1254.11,1382.4 1285.54,1379.11 1285.54,1379.11L1077.23,1379.11C1077.23,1379.11 1086.17,1388.52 1074.54,1420.14C1064.38,1447.73 1009.29,1606.13 1009.29,1606.13L1099.24,1606.13C1099.24,1606.13 1087.95,1601.47 1080.37,1597.9C1070.15,1593.19 1063.99,1588.43 1071.83,1566.12C1081.03,1540.48 1127.96,1395.82 1127.96,1395.82L1191.27,1395.82L1128.31,1605.83L1128.29,1605.82Z" style="fill:rgb(227,30,36);"/>
                <path d="M1823.36,1539.04C1822.86,1555.18 1832.3,1573.07 1855.87,1574.53C1900.02,1575.32 1946.46,1540.8 1946.46,1540.8C1946.46,1540.8 1913.98,1571.99 1891.84,1587.25C1878.44,1596.42 1856.08,1605.82 1834.32,1605.82C1796.05,1605.12 1788.34,1588.93 1784.59,1572.58C1770.04,1508.53 1817.55,1435.2 1860.56,1400.03C1878.21,1385.63 1898.35,1378.43 1922.16,1378.48C1951.58,1378.22 1964.95,1397.12 1967.81,1406.49C1972.8,1422.36 1971.08,1442.24 1965.4,1457.87C1997.84,1462.84 2062.7,1473.54 2062.7,1473.54C2062.7,1473.54 1950.66,1475.03 1913.26,1475.03C1936.55,1432.79 1942.75,1384.93 1911.5,1392.58C1891.64,1398.28 1864.3,1435.1 1845.31,1473.77C1836.85,1490.88 1825.33,1514.48 1823.36,1539.03L1823.36,1539.04Z" style="fill:rgb(227,30,36);"/>
                <path d="M1407.53,1379.11C1368.85,1379.11 1313.16,1390.36 1292.28,1439.02C1270.45,1494.09 1235.76,1605.82 1235.76,1605.82L1310.73,1605.82C1310.73,1605.82 1285.84,1598.37 1289.86,1579.5C1292.47,1567.04 1323.13,1453.88 1344.44,1427.09C1365.77,1400.27 1397.12,1393.84 1420.4,1393.34C1407.53,1425.1 1351.16,1605.6 1351.16,1605.6L1438.81,1605.6C1438.81,1605.6 1406.04,1598.87 1406.52,1579.5C1407.02,1560.15 1459.16,1412.17 1462.19,1405.76C1465.09,1399.27 1471.05,1387.37 1496.44,1379.11L1407.53,1379.11Z" style="fill:rgb(227,30,36);"/>
                <path d="M1764.17,1425.49C1756.24,1411.08 1746,1406.58 1728.95,1408.68C1709.73,1410.25 1691.66,1427.62 1691.89,1449.43C1702.65,1431.55 1711.98,1432.42 1716.75,1440.12C1727.74,1460.83 1715.29,1490.93 1703.68,1517.2C1685.79,1557.68 1661.31,1597.07 1637.68,1593.93C1597.8,1588.2 1617.87,1523.39 1633.19,1490.88C1648.86,1488.15 1663.33,1485.25 1674.1,1483.21C1662.42,1482.27 1650.72,1481.49 1638.5,1480.48C1638.59,1480.42 1638.62,1480.3 1638.69,1480.21C1660.23,1442.92 1683.48,1410.25 1720.54,1400.03C1736.53,1396.32 1747.63,1397.38 1763.06,1405.27C1756.5,1389.5 1745.99,1378.23 1716.59,1378.49C1698.46,1378.49 1672.62,1389.44 1656.77,1401.53C1634.68,1418.43 1611.71,1445.14 1596.04,1475.71C1595.78,1475.67 1595.55,1475.62 1595.23,1475.59C1580.99,1475.27 1570.59,1475.07 1551.55,1474.75C1562.93,1439.58 1573.51,1408.65 1574.84,1405.77C1577.82,1399.28 1586.3,1387.38 1611.53,1379.12L1535.14,1379.12C1523.46,1410.73 1466.41,1605.61 1466.41,1605.61L1554.02,1605.61C1554.02,1605.61 1521.24,1598.88 1521.72,1579.51C1521.95,1570.7 1532.52,1534.93 1544.12,1498.09C1557.85,1498.27 1569.78,1497.77 1586.49,1497.43C1577.34,1522.02 1573.6,1547.98 1579.1,1572.59C1583.35,1591.26 1599.67,1604.66 1639.13,1606.29C1654.89,1605.99 1673.74,1603.63 1687.19,1594.43C1709.24,1579.2 1726.33,1556.88 1740.51,1533.2C1754.91,1508.52 1776.22,1454.16 1764.17,1425.5L1764.17,1425.49Z" style="fill:rgb(227,30,36);"/>
            </g>
            <g transform="matrix(1.031222,0,0,1,-2.739118,-11.69)">
                <path d="M1531.37,893.57L187.48,892.91C83.95,897.1 87.45,956.63 181.24,957.34L1534.19,957.34C1593.75,958.03 1660.29,948.95 1711.36,940.61C1792.02,927.21 1981.43,933.54 2058.57,931.41L2058.57,924.45C1982.9,925.76 1783.51,921.61 1712.08,910.46C1638.56,898.54 1568.54,893.58 1531.37,893.58L1531.37,893.57ZM1434.69,821.45C1358.47,821.45 1287.73,822.86 1219.08,825.01C1106.35,831.95 1020.92,830.52 886.27,830.52C774.92,831.95 662.98,828.53 541.09,820.75C455.02,817.87 359.83,813.03 280.74,815.85C159.46,816.64 142.07,862.07 214.85,874.73C235.05,877.51 256.08,879.64 283.48,880.35L1535.63,883.79C1595.12,883.13 1663.1,871.85 1714.89,866.34C1794.69,853.64 1916.87,859.27 1993.13,857.2L1993.13,850.13C1917.59,848.74 1786.33,853.01 1714.09,843.16C1637.84,834.13 1481.02,818.78 1434.68,821.47L1434.69,821.45ZM1391.44,743.74C1315.1,747.28 1288.38,752.12 1219.08,758.55C1136.44,769.06 1120.33,770.33 1041.26,770.33C1006.89,771.8 920.08,770.33 847.14,767.47C756.12,766.16 651.82,740.96 572.72,739.53C480.22,737.4 449.4,793.43 524.29,806.68C544.65,810.39 560.71,813.04 588.09,811.61C669.24,803.21 703.51,787.81 845.8,782.27C894.2,780.15 943.18,780.85 988,780.15C1086.12,780.85 1168.64,779.43 1219.07,789.93C1260.33,798.31 1320.52,810.92 1386.43,811.61C1436.86,812.3 1471.93,812.3 1533.53,802.6C1567.13,795.56 1600.02,792.74 1629.42,789.2C1703.68,780.86 1980.51,785.04 2056.96,782.27L2056.96,775.95C1981.23,774.53 1700.9,774.53 1626.7,769.06C1550.29,760.56 1437.55,741.65 1391.42,743.74L1391.44,743.74ZM1395.58,663.86C1307.32,665.28 1302.42,679.3 1221.08,687.71C1139.25,693.94 1122.46,693.31 1043.27,693.94C1009.72,694.76 973.18,693.94 901.23,691.95C854.21,689.13 808.68,684.23 768.01,679.3C728.05,670.87 703.51,665.27 662.35,663.25C636.33,663.25 616.07,665.27 598.62,668.81C512.59,684.23 514.49,716.52 590.92,726.84C614.68,731.12 660.21,733.94 686.83,730.4C767.31,726.84 761.72,710.1 901.24,705.12C949.49,703.19 945.28,704.6 990.1,703.84C1088.17,703.84 1168.66,701.03 1221.09,708.67C1265.34,710.79 1343.71,734.6 1404.66,734.6C1455.18,733.24 1487.29,726.19 1534.95,719.93C1568.54,712.97 1599.42,711.54 1628.79,708.67C1701.6,702.46 1912.68,708.01 1989.59,705.95L1989.59,698.91C1914.05,697.49 1703.02,697.49 1628.79,692.68C1518.08,688.39 1449.53,663.26 1395.59,663.87L1395.58,663.86ZM1401.75,589.71C1317.21,589.71 1289.83,589 1225.44,588.26L742.75,580.62C714.77,581.19 684.68,584.74 667.25,588.26C588.82,603.68 580.38,637.99 659.41,649.87C687.51,654.11 749.14,649.87 789.03,642.3C846.54,633.04 913.04,627.42 972.46,623.95C1010.46,622.51 1039.13,621.82 1077.64,624.67C1123.83,628.91 1171.5,629.61 1224.01,639.44C1268.16,641.49 1303.82,656.29 1364.78,656.29C1417.96,656.29 1477.47,641.49 1537.81,637.32C1571.32,630.34 1599.4,635.17 1628.77,633.04C1700.91,629.61 1985.52,635.89 2061.71,633.87L2061.71,626.78C1984.05,626.07 1714.08,624.67 1631.5,616.36C1534.17,607.88 1502.08,588.99 1401.74,589.7L1401.75,589.71ZM1532.87,966.46L187.47,970.03C53.71,971.31 55.03,1039.34 188.16,1034.4C388.44,1026.73 574.08,1026.01 749.13,1023.88C1038.29,1021.09 1296.78,1021.82 1534.17,1026.73C1593.73,1027.41 1660.94,1017.61 1712.75,1008.46C1792.56,995.9 1914.03,1002.79 1991.16,1000.86L1991.16,993.77C1914.03,993.77 1785.57,993.06 1712.06,984.65C1637.83,974.16 1569.98,966.46 1532.86,966.46L1532.87,966.46ZM1434.06,1035.04C1471.94,1035.04 1623.24,1049.72 1714.89,1063.14C1790.44,1069.43 1978.92,1068.03 2055.17,1068.62L2055.17,1075.03C1978.93,1077.83 1794,1072.91 1714.89,1083.44C1637.84,1098.8 1528.61,1104.37 1444.49,1104.37C1337.44,1102.31 1241.43,1091.04 1140.03,1083.44C1023.64,1078.54 802.33,1084.17 641.99,1087.65C495.64,1098.8 420,1110.65 336.66,1107.94C82.42,1115.01 91.53,1035.05 330.97,1040.7C431.82,1041.39 515.25,1062.36 641.23,1072.91C811.54,1070.18 1112.5,1070.18 1142.03,1068.04C1228.14,1064.55 1300.98,1032.98 1434.06,1035.05L1434.06,1035.04ZM1432.7,1114.18C1303.08,1121.25 1233.1,1133.08 1141.31,1142.28C1111.81,1144.36 796.11,1140.78 625.28,1143.61C491.44,1133.87 464.89,1118.35 359.02,1117.73C323.24,1117.04 287.63,1117.04 256.83,1120.48C169.17,1126.17 178.41,1177.97 307.19,1189.9C430.52,1194.73 521.54,1161.93 573.32,1158.38C730.25,1156.26 1019.59,1153.39 1139.25,1155.51C1253.45,1159.09 1336.81,1180.81 1443.96,1182.82C1546.77,1183.6 1640,1163.92 1714.09,1159.09C1793.26,1149.22 1911.25,1154.22 1988.42,1152.01L1988.42,1145.02C1911.26,1145.02 1789.73,1145.81 1713.37,1138.76C1621.81,1125.54 1518.07,1111.51 1432.7,1114.2L1432.7,1114.18Z" style="fill:rgb(43,42,41);"/>
            </g>
            <g>
                <path d="M1857.88,671.99L1857.88,609.78C1857.13,594.53 1879.11,594.53 1894.26,595.15L1893.83,622.6L1863.88,622.6L1863.88,636.04L1894.27,636.04L1894.27,671.99L1907.16,671.99L1907.81,636.04L1937.55,636.04L1937.55,622.6L1907.81,622.6L1907.81,581.75L1880.29,581.75C1859.64,581.75 1844.36,592.08 1844.36,606.77L1844.36,671.99L1857.9,671.99L1857.88,671.99Z" style="fill:rgb(43,42,41);"/>
                <path d="M1881.57,568.94C1915.62,568.94 1943.76,597.09 1943.76,631.11C1943.76,665.9 1915.63,693.85 1881.57,693.85L1881.57,690.83C1914.43,690.83 1941.27,663.97 1941.27,631.1C1941.27,598.17 1914.43,571.42 1881.57,571.42L1881.57,568.93L1881.57,568.94ZM1881.57,571.43C1848.68,571.43 1821.96,598.19 1821.96,631.11C1821.96,663.98 1848.67,690.84 1881.57,690.84L1881.57,693.86C1846.81,693.86 1818.86,665.9 1818.86,631.12C1818.86,597.1 1846.81,568.95 1881.57,568.95L1881.57,571.44L1881.57,571.43Z" style="fill:rgb(43,42,41);"/>
            </g>
        </g>
    </g>
</svg>
